HIERARCHY
ROOT Bip001_Pelvis
{
  OFFSET 3.67809 93.2994 -2.41599
  CHANNELS 6 Xposition Yposition Zposition Zrotation Xrotation Yrotation
  JOINT Bip001_Spine
  {
    OFFSET 1.44608e-005 10.4157 -0.0118244
    CHANNELS 3 Zrotation Xrotation Yrotation
    JOINT Bip001_L_Thigh
    {
      OFFSET 11.2582 -10.4157 0.0118432
      CHANNELS 3 Zrotation Xrotation Yrotation
      JOINT Bip001_L_Calf
      {
        OFFSET -0.720717 -44.8687 0.366937
        CHANNELS 3 Zrotation Xrotation Yrotation
        JOINT Bip001_L_Foot
        {
          OFFSET -0.664439 -41.3745 -3.62995
          CHANNELS 3 Zrotation Xrotation Yrotation
          JOINT Bip001_L_Toe0
          {
            OFFSET 0.0541048 -10.4146 13.4033
            CHANNELS 3 Zrotation Xrotation Yrotation
            End Site
            {
              OFFSET -1.04503e-005 0 7.70137
            }
          }
        }
      }
    }
    JOINT Bip001_R_Thigh
    {
      OFFSET -11.2582 -10.4156 0.0118122
      CHANNELS 3 Zrotation Xrotation Yrotation
      JOINT Bip001_R_Calf
      {
        OFFSET 0.72059 -44.8687 0.36676
        CHANNELS 3 Zrotation Xrotation Yrotation
        JOINT Bip001_R_Foot
        {
          OFFSET 0.664321 -41.3745 -3.62979
          CHANNELS 3 Zrotation Xrotation Yrotation
          JOINT Bip001_R_Toe0
          {
            OFFSET -0.05417 -10.4146 13.4033
            CHANNELS 3 Zrotation Xrotation Yrotation
            End Site
            {
              OFFSET -1.04873e-005 0 7.70137
            }
          }
        }
      }
    }
    JOINT Bip001_Spine1
    {
      OFFSET 1.90638e-005 14.8539 1.10727
      CHANNELS 3 Zrotation Xrotation Yrotation
      JOINT Bip001_Spine2
      {
        OFFSET 2.28934e-005 14.7848 -1.7233
        CHANNELS 3 Zrotation Xrotation Yrotation
        JOINT Bip001_Neck
        {
          OFFSET 2.24514e-005 15.6905 -0.498826
          CHANNELS 3 Zrotation Xrotation Yrotation
          JOINT Bip001_L_Clavicle
          {
            OFFSET 6.17691 -0.000591152 0.00852867
            CHANNELS 3 Zrotation Xrotation Yrotation
            JOINT Bip001_L_UpperArm
            {
              OFFSET 11.773 -0.0611878 0.00197697
              CHANNELS 3 Zrotation Xrotation Yrotation
              JOINT Bip001_L_Forearm
              {
                OFFSET 26.4515 0.0817568 -2.19579
                CHANNELS 3 Zrotation Xrotation Yrotation
                JOINT Bip001_L_Hand
                {
                  OFFSET 32.8678 0.156744 1.67112
                  CHANNELS 3 Zrotation Xrotation Yrotation
                  JOINT Bip001_L_Finger0
                  {
                    OFFSET 6.16268 -2.25226 6.01673
                    CHANNELS 3 Zrotation Xrotation Yrotation
                    End Site
                    {
                      OFFSET 4.30499 -1.46663 0.618147
                    }
                  }
                  JOINT Bip001_L_Finger1
                  {
                    OFFSET 11.2958 -0.718375 -0.201963
                    CHANNELS 3 Zrotation Xrotation Yrotation
                    End Site
                    {
                      OFFSET 6.31953 -0.405163 -0.0802301
                    }
                  }
                }
              }
            }
          }
          JOINT Bip001_R_Clavicle
          {
            OFFSET -6.17691 -0.000574027 0.00851165
            CHANNELS 3 Zrotation Xrotation Yrotation
            JOINT Bip001_R_UpperArm
            {
              OFFSET -11.773 -0.0611516 0.00194365
              CHANNELS 3 Zrotation Xrotation Yrotation
              JOINT Bip001_R_Forearm
              {
                OFFSET -26.4514 0.0822335 -2.19736
                CHANNELS 3 Zrotation Xrotation Yrotation
                JOINT Bip001_R_Hand
                {
                  OFFSET -32.8679 0.156816 1.67143
                  CHANNELS 3 Zrotation Xrotation Yrotation
                  JOINT Bip001_R_Finger0
                  {
                    OFFSET -6.16275 -2.25224 6.01668
                    CHANNELS 3 Zrotation Xrotation Yrotation
                    End Site
                    {
                      OFFSET -4.30502 -1.46661 0.618132
                    }
                  }
                  JOINT Bip001_R_Finger1
                  {
                    OFFSET -11.2958 -0.718342 -0.201993
                    CHANNELS 3 Zrotation Xrotation Yrotation
                    End Site
                    {
                      OFFSET -6.31957 -0.405145 -0.0802473
                    }
                  }
                }
              }
            }
          }
          JOINT Bip001_Head
          {
            OFFSET 1.11782e-005 11.4912 2.09908
            CHANNELS 3 Zrotation Xrotation Yrotation
            End Site
            {
              OFFSET 2.95144e-005 21.2823 -2.83069e-005
            }
          }
        }
      }
    }
  }
}
MOTION
Frames:	14
Frame Time:	0.0333333
3.6768 93.297 -2.43412 -3.10682 -13.5511 -13.1711 -0.804302 5.4256 -1.21704 -5.65883 11.2807 6.17098 0.234201 6.80447 6.91859 -7.39718 6.85656 -12.0556 -3.87631e-006 2.80822e-006 7.34544e-007 -0.915386 -8.35322 0.307119 0.261306 28.9095 7.38953 -0.932915 -7.49134 7.66854 1.58794e-008 -4.26701e-007 4.89019e-010 -0.634002 10.8048 3.45827 -0.634338 10.8048 3.4583 0.336636 9.70456 -9.53341 0.493296 -10.0062 15.6371 -13.1198 51.5256 -89.2434 -3.07546 0.993708 -32.5279 -24.8685 -4.95148 -17.1612 -7.95139e-016 -2.38542e-015 2.38542e-015 -1.59028e-015 -2.38542e-015 1.49089e-015 2.28394 -10.539 -5.67653 6.24892 55.3358 77.199 5.55125 5.17676 82.339 2.92084 -5.24916 25.4128 -3.18055e-015 -3.18055e-015 -7.95139e-016 -3.18055e-015 -1.59028e-015 -2.38542e-015 0.922645 12.1171 -10.3068 
3.6778 93.2993 -2.41305 -3.09758 -13.49 -13.142 -0.764368 5.41754 -1.21703 -5.6793 11.2558 6.15333 0.234201 6.80447 6.91859 -7.39077 6.8552 -12.1093 -3.87631e-006 2.80822e-006 7.34544e-007 -0.95612 -8.35327 0.240814 0.262068 28.8553 7.38565 -0.915575 -7.45515 7.68822 1.58794e-008 -4.26701e-007 4.89019e-010 -0.551964 10.7774 3.45795 -0.551969 10.7773 3.45799 0.0686633 9.8115 -9.50356 0.202741 -10.1617 15.4945 -13.1791 51.3924 -88.9394 -3.07714 1.00553 -32.6661 -25.0154 -4.1339 -16.8607 -1.59028e-015 7.95139e-016 -1.68967e-015 -1.59028e-015 7.95139e-016 -2.5842e-015 2.8225 -10.5798 -5.57724 6.14548 55.3825 77.0251 5.55003 5.16398 82.2032 3.15805 -5.21291 25.1246 6.36111e-015 0 7.95139e-016 3.18055e-015 0 -0 1.23626 12.2584 -10.5073 
3.68616 93.3107 -2.39025 -3.09479 -13.4088 -13.1014 -0.728612 5.40223 -1.20859 -5.68041 11.2122 6.12214 0.234201 6.80447 6.91859 -7.39643 6.82995 -12.1069 -3.87631e-006 2.80822e-006 7.34544e-007 -0.990133 -8.37171 0.153995 0.267427 28.7774 7.3801 -0.919055 -7.43368 7.68741 1.58793e-008 -4.26701e-007 4.89019e-010 -0.481073 10.7482 3.47767 -0.481085 10.7482 3.47773 -0.220071 9.84756 -9.44944 -0.151853 -10.2546 15.2744 -14.4452 51.2881 -87.4835 -3.09151 1.01814 -32.8542 -25.3469 -3.03829 -16.2261 -7.95139e-016 -1.59028e-015 -5.06901e-015 -7.95139e-016 -2.38542e-015 9.93923e-017 3.25084 -10.5574 -5.53878 6.35089 55.5708 76.6056 5.54826 5.14584 82.0097 3.65102 -5.58283 25.0468 -3.18055e-015 -1.59028e-015 -7.95139e-016 -3.18055e-015 1.59028e-015 -3.97569e-016 1.13546 12.6283 -10.4563 
3.71777 93.3039 -2.36031 -3.0237 -13.2798 -13.0995 -0.720283 5.38183 -1.19767 -5.7473 11.0994 6.05275 0.234201 6.80447 6.91859 -7.39198 6.76986 -12.0374 -3.87631e-006 2.80822e-006 7.34544e-007 -1.05275 -8.51607 0.152406 0.264915 28.85 7.38527 -0.863344 -7.50651 7.77218 1.58794e-008 -4.26701e-007 4.89019e-010 -0.477588 10.7075 3.50191 -0.477578 10.7075 3.50194 -0.162757 9.82537 -9.43929 -0.571822 -10.2915 15.0304 -16.0284 51.3114 -85.8477 -3.10322 1.02254 -32.9681 -25.6739 -2.65462 -15.911 2.38542e-015 7.95139e-016 -6.16232e-015 1.59028e-015 7.95139e-016 -4.96962e-015 3.37718 -10.5289 -5.48083 6.61936 55.7947 76.0791 5.54703 5.1332 81.8744 4.11396 -5.65793 24.9178 0 0 -0 -0 -1.59028e-015 -0 1.30022 12.8253 -10.3898 
3.72576 93.3016 -2.31395 -2.98903 -13.2565 -13.0464 -0.71553 5.39046 -1.22011 -5.77998 11.0913 6.08585 0.234201 6.80447 6.91859 -7.391 6.72447 -11.9933 -3.87631e-006 2.80822e-006 7.34544e-007 -1.06714 -8.53322 0.208422 0.261017 28.9037 7.38911 -0.771799 -7.6022 7.86 1.58794e-008 -4.26701e-007 4.89018e-010 -0.454901 10.7248 3.45427 -0.454861 10.7248 3.45431 -0.2496 9.94536 -9.32899 -0.799658 -10.4386 14.7658 -17.2198 51.2988 -84.5412 -3.10704 1.02244 -32.9594 -25.6587 -2.47664 -15.6608 -7.95139e-016 7.95139e-016 5.91384e-015 -0 0 2.48481e-015 3.51735 -10.6239 -5.44227 6.84933 55.9277 75.7611 5.54627 5.11876 81.72 4.55767 -5.79431 24.9141 -3.18055e-015 1.59028e-015 -3.97569e-016 -0 0 3.97569e-016 1.30377 13.3482 -10.3074 
3.73526 93.2986 -2.2708 -2.95254 -13.2642 -12.9473 -0.710818 5.41529 -1.2572 -5.80863 11.0714 6.10217 0.234201 6.80447 6.91859 -7.38782 6.71217 -12.0087 -3.87631e-006 2.80822e-006 7.34544e-007 -1.09562 -8.52296 0.258027 0.264694 28.8775 7.38724 -0.843951 -7.59367 7.65576 1.58794e-008 -4.26701e-007 4.89019e-010 -0.433286 10.7742 3.37869 -0.429544 10.7742 3.37872 -0.379643 9.93155 -9.19789 -0.924294 -10.4366 14.5746 -17.3899 51.3696 -84.1147 -3.10998 1.02523 -33.0045 -25.2225 -2.22691 -15.5611 7.95139e-016 -7.95139e-016 8.94531e-015 7.95139e-016 -7.95139e-016 9.79014e-015 3.60744 -10.5916 -5.52473 6.72665 55.9496 75.841 5.54753 5.11593 81.691 4.69855 -5.78698 24.8629 -1.10348e-032 -1.59028e-015 -3.97569e-016 -3.18055e-015 -1.59028e-015 -0 1.1502 13.8213 -10.104 
3.73897 93.2907 -2.22396 -2.90746 -13.2693 -12.8173 -0.707881 5.44104 -1.2857 -5.82833 11.0658 6.14827 0.233639 6.80906 6.91865 -7.36819 6.73465 -12.1099 -3.87631e-006 2.80822e-006 7.34544e-007 -1.11204 -8.50993 0.30725 0.255566 28.9228 7.39048 -0.816546 -7.66043 7.5906 1.58794e-008 -4.26701e-007 4.89019e-010 -0.43094 10.8254 3.32127 -0.419744 10.8254 3.32036 -0.454481 9.84521 -9.13847 -0.999404 -10.3566 14.4254 -17.5634 51.4803 -83.7314 -3.1141 1.03277 -33.125 -24.7684 -2.12118 -15.5377 -7.95139e-016 7.95139e-016 4.62174e-015 7.95139e-016 7.95139e-016 3.08116e-015 3.65487 -10.5 -5.63372 6.65205 55.9982 75.901 5.54574 5.12235 81.7578 4.64718 -5.70957 24.7314 6.36111e-015 -1.59028e-015 -7.95139e-016 9.54166e-015 -1.59028e-015 -1.19271e-015 1.49908 13.9154 -10.1919 
3.74251 93.2844 -2.18743 -2.86694 -13.2766 -12.6813 -0.703693 5.46043 -1.33114 -5.80908 11.0475 6.15609 0.230523 6.83456 6.91902 -7.34917 6.77464 -12.1861 -3.87631e-006 2.80822e-006 7.34544e-007 -1.10475 -8.49571 0.367755 0.245703 28.9717 7.39399 -0.814089 -7.76487 7.46504 1.58793e-008 -4.26701e-007 4.89019e-010 -0.415142 10.8637 3.22795 -0.407548 10.8637 3.22587 -0.358868 9.80485 -9.07048 -1.17672 -10.338 14.3078 -18.0224 51.514 -83.1431 -3.12449 1.04069 -33.252 -24.6155 -1.97878 -15.4394 7.95139e-016 7.95139e-016 -7.95139e-015 1.59028e-015 0 -6.60959e-015 3.56948 -10.4799 -5.70101 6.69656 56.0316 75.8588 5.54695 5.13274 81.8694 4.71526 -5.52667 24.7458 6.36111e-015 0 2.38542e-015 3.18055e-015 0 1.59028e-015 0.9334 14.3536 -10.0417 
3.74633 93.2772 -2.14804 -2.84166 -13.2819 -12.5863 -0.703755 5.48477 -1.36893 -5.8273 11.0299 6.24499 0.229673 6.84152 6.91912 -7.33817 6.80142 -12.2303 -3.87631e-006 2.80822e-006 7.34544e-007 -1.09408 -8.46178 0.414552 0.252653 28.9194 7.39024 -0.795848 -7.618 7.60837 1.58794e-008 -4.26701e-007 4.89019e-010 -0.397889 10.9114 3.15001 -0.40017 10.9114 3.14789 -0.296643 9.7952 -9.00437 -1.36954 -10.3525 14.2548 -18.0965 51.5233 -82.8622 -3.14263 1.05341 -33.4723 -24.4383 -1.52176 -15.162 -7.95139e-016 7.95139e-016 -3.37934e-015 -7.95139e-016 0 4.32357e-015 3.48138 -10.4859 -5.75429 6.72616 56.0315 75.9137 5.54789 5.14092 81.9572 4.48555 -5.14152 24.7035 -0 -1.59028e-015 -0 -3.18055e-015 -1.59028e-015 -1.19271e-015 1.63261 14.2718 -10.6046 
3.74132 93.2645 -2.09671 -2.81366 -13.2815 -12.4832 -0.701508 5.49379 -1.38449 -5.81652 11.0341 6.2464 0.227367 6.86039 6.9194 -7.33372 6.81221 -12.2698 -3.87631e-006 2.80822e-006 7.34544e-007 -1.0961 -8.41958 0.400056 0.255478 28.9206 7.39032 -0.76734 -7.6229 7.60237 1.58794e-008 -4.26701e-007 4.89019e-010 -0.413658 10.9292 3.12118 -0.413629 10.9292 3.12121 -0.316016 9.97963 -8.9605 -1.32816 -10.5308 14.1579 -17.8604 51.6365 -82.8349 -3.17107 1.07365 -33.8195 -24.1252 -1.36636 -15.074 -1.59028e-015 7.95139e-016 -3.57812e-015 -7.95139e-016 7.95139e-016 -6.95746e-016 3.53475 -10.6489 -5.59715 6.68789 55.9107 75.8548 5.54907 5.15435 82.1005 4.01035 -5.03528 24.6784 -3.18055e-015 0 -3.97569e-016 -3.18055e-015 0 -0 4.41273 14.4519 -12.5811 
3.75028 93.2569 -2.04934 -2.78908 -13.2595 -12.3999 -0.626069 5.5635 -1.18394 -5.84178 11.018 6.00545 0.225075 6.87914 6.91967 -7.34363 6.78877 -12.2635 -3.87631e-006 2.80822e-006 7.34544e-007 -1.20211 -8.48191 0.186648 0.266136 28.908 7.38942 -0.766565 -7.63996 7.52886 1.58793e-008 -4.26701e-007 4.89019e-010 -0.281894 11.074 3.51684 -0.281859 11.074 3.51688 -1.45406 9.3155 -9.03312 -0.961969 -9.79321 14.0882 -16.1444 51.1775 -84.1387 -3.20804 1.10036 -34.2732 -24.2208 -1.1096 -14.8836 7.95139e-016 7.95139e-016 -9.93923e-016 7.95139e-016 0 1.09332e-015 4.8918 -9.80417 -5.58454 7.24652 55.781 74.6799 5.55456 5.21 82.6909 2.71252 -4.91702 24.1587 -6.36111e-015 1.59028e-015 3.97569e-016 -6.36111e-015 0 3.97569e-016 3.74078 14.4406 -12.8494 
3.71872 93.244 -2.03589 -2.78386 -13.2316 -12.3659 -0.865865 5.81302 -1.25444 -5.6176 10.7843 6.05346 0.230578 6.83412 6.91902 -7.33823 6.84533 -12.3226 -3.87631e-006 2.80822e-006 7.34544e-007 -0.959765 -8.8102 0.255728 0.259585 29.1612 7.40767 -0.790712 -7.87743 7.5404 1.58794e-008 -4.26701e-007 4.89019e-010 -0.765135 11.5646 3.39696 -0.765164 11.5646 3.39702 1.30313 7.66999 -9.57938 -2.81151 -8.51155 15.1785 -16.3136 50.2261 -84.3176 -3.22948 1.11603 -34.5371 -23.9652 -0.343924 -14.6084 2.06902e-032 -7.95139e-016 1.49088e-015 7.95139e-016 -7.95139e-016 -3.97569e-016 4.36519 -8.28829 -3.85419 7.69906 54.9946 71.7721 5.56837 5.37865 84.4397 2.22725 -3.98211 24.161 -3.18055e-015 -1.59028e-015 -7.95139e-016 -3.18055e-015 0 -7.95139e-016 2.23242 14.1462 -12.3428 
3.70414 93.2356 -2.00144 -2.847 -13.1595 -12.3106 -0.926328 5.9381 -1.05362 -5.42882 10.6876 5.71008 0.231503 6.83523 6.91903 -7.33398 6.84619 -12.3996 -3.87631e-006 2.80822e-006 7.34544e-007 -0.845016 -8.97611 0.0361704 0.256245 29.1883 7.40964 -0.76644 -7.8992 7.51056 1.58794e-008 -4.26701e-007 4.89019e-010 -0.911696 11.8147 3.80741 -0.911689 11.8147 3.80744 1.64292 6.75636 -9.91277 -3.20221 -7.64645 15.2552 -15.6779 49.6963 -84.6079 -3.27848 1.15241 -35.1439 -23.7879 0.0991925 -14.2859 -3.31043e-032 -1.59028e-015 -1.19271e-015 0 0 -3.27995e-015 3.73959 -7.32747 -2.68361 12.9198 55.5748 66.4374 5.57259 5.45047 85.1669 2.71698 -3.4434 24.3763 3.18055e-015 0 3.97569e-016 3.18055e-015 -1.59028e-015 7.95139e-016 2.16811 14.6194 -12.063 
3.755 93.219 -1.92483 -2.79598 -13.1427 -12.3123 -0.820425 6.11311 -0.884694 -5.5624 10.6065 5.5003 0.232303 6.83241 6.91899 -7.32172 6.81721 -12.5931 -3.87631e-006 2.80822e-006 7.34544e-007 -1.09672 -9.12366 -0.299078 0.255042 29.1468 7.40663 -0.740274 -7.83992 7.68558 1.58793e-008 -4.26701e-007 4.89019e-010 -0.722256 12.1707 4.13604 -0.722248 12.1708 4.13608 0.1484 5.8298 -9.7775 -2.72646 -6.64679 15.3127 -14.7405 49.309 -85.191 -3.35097 1.2078 -36.051 -23.6523 0.476944 -13.8108 7.86227e-032 -2.38542e-015 1.88845e-015 8.00021e-032 -1.59028e-015 2.88238e-015 3.32895 -6.2322 -2.03965 17.9568 55.9608 62.8383 5.57186 5.43495 85.0104 2.87821 -3.50944 24.5032 -3.18055e-015 1.59028e-015 1.19271e-015 2.20695e-032 3.18056e-015 -3.97569e-016 2.6759 15.0411 -11.7962 
